<?xml version="1.0" encoding="UTF-8"?>
<svg id="_圖層_1" data-name="圖層 1" xmlns="http://www.w3.org/2000/svg" viewBox="0 0 1600 440">
  <defs>
    <style>
      .cls-1 {
        fill: #3c3c3c;
      }

      .cls-1, .cls-2 {
        stroke-width: 0px;
      }

      .cls-2 {
        fill: #12bac9;
      }
    </style>
  </defs>
  <g>
    <circle class="cls-2" cx="370.45" cy="60.3" r="26.8"/>
    <path class="cls-2" d="m228.35,60.3c-95.6,0-173.1,77.5-173.1,173.1,0,49.3,20.6,93.7,53.7,125.2-24.4-91.7,55.5-247.4,188.6-274.3-110.2,38.5-157.6,198.7-139.5,252.4,8.2,24.5,27.6,37,59.7,26.2,75.8-25.5,115.4-145.1,97.8-197.5-6.6-19.6-21.7-30-46.2-21.8-2,.7-3.9,1.7-9.1,3.5-8,2.7-12.9,1.5-13.5-2.9-1.9-15.2,18.6-46.2,51.6-50.7,24.7-2.8,40.8,10.8,48.4,33.4,24.1,71.6-33.3,235.4-147.2,273.7-2.4.8-4.8,1.5-7.2,2.1,11.6,2.5,23.7,3.8,36,3.8,95.6,0,173.1-77.5,173.1-173.1,0-95.6-77.5-173.1-173.1-173.1Z"/>
  </g>
  <g>
    <path class="cls-1" d="m543.17,79.31l47.78,140.47h.57l45.2-140.47h63.23v204.27h-42.06v-144.76h-.57l-50.07,144.76h-34.62l-50.07-143.33h-.57v143.33h-42.06V79.31h63.23Z"/>
    <path class="cls-1" d="m757.74,112.78v-33.47h40.63v33.47h-40.63Zm40.63,22.89v147.91h-40.63v-147.91h40.63Z"/>
    <path class="cls-1" d="m890.48,135.67v20.6h.86c5.15-8.58,11.82-14.83,20.03-18.74,8.2-3.91,16.59-5.86,25.18-5.86,10.87,0,19.79,1.48,26.75,4.43,6.96,2.96,12.45,7.06,16.45,12.3,4.01,5.25,6.82,11.64,8.44,19.17,1.62,7.54,2.43,15.88,2.43,25.03v90.98h-40.63v-83.54c0-12.2-1.91-21.31-5.72-27.32-3.82-6.01-10.59-9.01-20.31-9.01-11.06,0-19.08,3.29-24.03,9.87-4.96,6.58-7.44,17.41-7.44,32.47v77.53h-40.63v-147.91h38.62Z"/>
    <path class="cls-1" d="m1143.1,283.58v-20.6h-.86c-5.15,8.58-11.83,14.78-20.03,18.6-8.2,3.81-16.59,5.72-25.18,5.72-10.87,0-19.79-1.43-26.75-4.29-6.96-2.86-12.45-6.91-16.45-12.16-4.01-5.24-6.82-11.63-8.44-19.17-1.62-7.53-2.43-15.88-2.43-25.03v-90.98h40.63v83.54c0,12.21,1.9,21.31,5.72,27.32,3.81,6.01,10.59,9.01,20.31,9.01,11.06,0,19.07-3.29,24.03-9.87,4.96-6.58,7.44-17.4,7.44-32.47v-77.53h40.63v147.91h-38.62Z"/>
    <path class="cls-1" d="m1315.33,135.67v27.18h-29.75v73.24c0,6.87,1.14,11.44,3.43,13.73,2.29,2.29,6.87,3.43,13.73,3.43,2.29,0,4.48-.09,6.58-.29,2.1-.19,4.1-.47,6.01-.86v31.47c-3.43.57-7.25.95-11.44,1.14-4.2.19-8.3.29-12.3.29-6.29,0-12.26-.43-17.88-1.29-5.63-.86-10.59-2.53-14.88-5.01-4.29-2.48-7.68-6.01-10.16-10.59-2.48-4.58-3.72-10.59-3.72-18.02v-87.26h-24.6v-27.18h24.6v-44.34h40.63v44.34h29.75Z"/>
    <path class="cls-1" d="m1435.49,166.28h-71.24v-30.61h124.74v30.61l-76.96,86.69h82.4v30.61h-135.9v-30.61l76.96-86.69Z"/>
  </g>
  <g>
    <path class="cls-2" d="m498.2,326.75c3.57,0,6.61.52,9.12,1.56,2.51,1.04,4.55,2.41,6.12,4.12,1.57,1.71,2.72,3.65,3.44,5.84.72,2.19,1.08,4.45,1.08,6.8s-.36,4.55-1.08,6.76c-.72,2.21-1.87,4.17-3.44,5.88-1.57,1.71-3.61,3.08-6.12,4.12-2.51,1.04-5.55,1.56-9.12,1.56h-13.2v20.48h-12.56v-57.12h25.76Zm-3.44,26.88c1.44,0,2.83-.11,4.16-.32,1.33-.21,2.51-.63,3.52-1.24,1.01-.61,1.83-1.48,2.44-2.6.61-1.12.92-2.59.92-4.4s-.31-3.28-.92-4.4c-.61-1.12-1.43-1.99-2.44-2.6-1.01-.61-2.19-1.03-3.52-1.24-1.33-.21-2.72-.32-4.16-.32h-9.76v17.12h9.76Z"/>
    <path class="cls-2" d="m536.84,354.23c1.01-2.69,2.45-4.99,4.32-6.88,1.87-1.89,4.11-3.36,6.72-4.4,2.61-1.04,5.55-1.56,8.8-1.56s6.2.52,8.84,1.56c2.64,1.04,4.89,2.51,6.76,4.4,1.87,1.89,3.31,4.19,4.32,6.88,1.01,2.69,1.52,5.69,1.52,9s-.51,6.29-1.52,8.96c-1.01,2.67-2.45,4.95-4.32,6.84-1.87,1.89-4.12,3.35-6.76,4.36-2.64,1.01-5.59,1.52-8.84,1.52s-6.19-.51-8.8-1.52c-2.61-1.01-4.85-2.47-6.72-4.36-1.87-1.89-3.31-4.17-4.32-6.84-1.01-2.67-1.52-5.65-1.52-8.96s.51-6.31,1.52-9Zm10.32,13.84c.32,1.57.87,2.99,1.64,4.24.77,1.25,1.8,2.25,3.08,3,1.28.75,2.88,1.12,4.8,1.12s3.53-.37,4.84-1.12c1.31-.75,2.35-1.75,3.12-3,.77-1.25,1.32-2.67,1.64-4.24.32-1.57.48-3.19.48-4.84s-.16-3.28-.48-4.88c-.32-1.6-.87-3.01-1.64-4.24-.77-1.23-1.81-2.23-3.12-3-1.31-.77-2.92-1.16-4.84-1.16s-3.52.39-4.8,1.16c-1.28.77-2.31,1.77-3.08,3-.77,1.23-1.32,2.64-1.64,4.24-.32,1.6-.48,3.23-.48,4.88s.16,3.27.48,4.84Z"/>
    <path class="cls-2" d="m633.08,383.87l-7.36-27.76h-.16l-7.04,27.76h-11.76l-13.12-41.36h12l7.6,28.08h.16l6.88-28.08h11.04l7.04,28h.16l7.6-28h11.68l-13.04,41.36h-11.68Z"/>
    <path class="cls-2" d="m686.76,373.95c1.71,1.65,4.16,2.48,7.36,2.48,2.29,0,4.27-.57,5.92-1.72,1.65-1.15,2.67-2.36,3.04-3.64h10c-1.6,4.96-4.05,8.51-7.36,10.64-3.31,2.13-7.31,3.2-12,3.2-3.25,0-6.19-.52-8.8-1.56-2.61-1.04-4.83-2.52-6.64-4.44-1.81-1.92-3.21-4.21-4.2-6.88-.99-2.67-1.48-5.6-1.48-8.8s.51-5.97,1.52-8.64c1.01-2.67,2.45-4.97,4.32-6.92,1.87-1.95,4.09-3.48,6.68-4.6,2.59-1.12,5.45-1.68,8.6-1.68,3.52,0,6.59.68,9.2,2.04,2.61,1.36,4.76,3.19,6.44,5.48,1.68,2.29,2.89,4.91,3.64,7.84.75,2.93,1.01,6,.8,9.2h-29.84c.16,3.68,1.09,6.35,2.8,8Zm12.84-21.76c-1.36-1.49-3.43-2.24-6.2-2.24-1.81,0-3.32.31-4.52.92-1.2.61-2.16,1.37-2.88,2.28-.72.91-1.23,1.87-1.52,2.88-.29,1.01-.47,1.92-.52,2.72h18.48c-.53-2.88-1.48-5.07-2.84-6.56Z"/>
    <path class="cls-2" d="m743.32,342.51v7.68h.16c.53-1.28,1.25-2.47,2.16-3.56.91-1.09,1.95-2.03,3.12-2.8,1.17-.77,2.43-1.37,3.76-1.8,1.33-.43,2.72-.64,4.16-.64.75,0,1.57.13,2.48.4v10.56c-.53-.11-1.17-.2-1.92-.28-.75-.08-1.47-.12-2.16-.12-2.08,0-3.84.35-5.28,1.04-1.44.69-2.6,1.64-3.48,2.84-.88,1.2-1.51,2.6-1.88,4.2-.37,1.6-.56,3.33-.56,5.2v18.64h-11.36v-41.36h10.8Z"/>
    <path class="cls-2" d="m786.36,373.95c1.71,1.65,4.16,2.48,7.36,2.48,2.29,0,4.27-.57,5.92-1.72,1.65-1.15,2.67-2.36,3.04-3.64h10c-1.6,4.96-4.05,8.51-7.36,10.64-3.31,2.13-7.31,3.2-12,3.2-3.25,0-6.19-.52-8.8-1.56-2.61-1.04-4.83-2.52-6.64-4.44-1.81-1.92-3.21-4.21-4.2-6.88-.99-2.67-1.48-5.6-1.48-8.8s.51-5.97,1.52-8.64c1.01-2.67,2.45-4.97,4.32-6.92,1.87-1.95,4.09-3.48,6.68-4.6,2.59-1.12,5.45-1.68,8.6-1.68,3.52,0,6.59.68,9.2,2.04,2.61,1.36,4.76,3.19,6.44,5.48,1.68,2.29,2.89,4.91,3.64,7.84.75,2.93,1.01,6,.8,9.2h-29.84c.16,3.68,1.09,6.35,2.8,8Zm12.84-21.76c-1.36-1.49-3.43-2.24-6.2-2.24-1.81,0-3.32.31-4.52.92-1.2.61-2.16,1.37-2.88,2.28-.72.91-1.23,1.87-1.52,2.88-.29,1.01-.47,1.92-.52,2.72h18.48c-.53-2.88-1.48-5.07-2.84-6.56Z"/>
    <path class="cls-2" d="m861.48,378.59c-1.33,2.24-3.08,3.85-5.24,4.84s-4.6,1.48-7.32,1.48c-3.09,0-5.81-.6-8.16-1.8-2.35-1.2-4.28-2.83-5.8-4.88-1.52-2.05-2.67-4.41-3.44-7.08-.77-2.67-1.16-5.44-1.16-8.32s.39-5.45,1.16-8.04c.77-2.59,1.92-4.87,3.44-6.84,1.52-1.97,3.43-3.56,5.72-4.76,2.29-1.2,4.96-1.8,8-1.8,2.45,0,4.79.52,7,1.56,2.21,1.04,3.96,2.57,5.24,4.6h.16v-20.8h11.36v57.12h-10.8v-5.28h-.16Zm-.48-20.44c-.32-1.57-.87-2.96-1.64-4.16-.77-1.2-1.77-2.17-3-2.92-1.23-.75-2.77-1.12-4.64-1.12s-3.44.37-4.72,1.12c-1.28.75-2.31,1.73-3.08,2.96-.77,1.23-1.33,2.63-1.68,4.2-.35,1.57-.52,3.21-.52,4.92,0,1.6.19,3.2.56,4.8.37,1.6.97,3.03,1.8,4.28.83,1.25,1.87,2.27,3.12,3.04,1.25.77,2.76,1.16,4.52,1.16,1.87,0,3.43-.37,4.68-1.12,1.25-.75,2.25-1.75,3-3,.75-1.25,1.28-2.68,1.6-4.28.32-1.6.48-3.25.48-4.96s-.16-3.35-.48-4.92Z"/>
    <path class="cls-2" d="m938.59,326.75v20.8h.16c1.39-2.13,3.27-3.69,5.64-4.68,2.37-.99,4.84-1.48,7.4-1.48,2.08,0,4.13.43,6.16,1.28,2.03.85,3.85,2.16,5.48,3.92,1.63,1.76,2.95,4.01,3.96,6.76,1.01,2.75,1.52,6.01,1.52,9.8s-.51,7.05-1.52,9.8c-1.01,2.75-2.33,5-3.96,6.76-1.63,1.76-3.45,3.07-5.48,3.92-2.03.85-4.08,1.28-6.16,1.28-3.04,0-5.76-.48-8.16-1.44-2.4-.96-4.21-2.59-5.44-4.88h-.16v5.28h-10.8v-57.12h11.36Zm18.4,31.44c-.37-1.6-.96-3.01-1.76-4.24-.8-1.23-1.8-2.2-3-2.92s-2.65-1.08-4.36-1.08-3.09.36-4.32,1.08c-1.23.72-2.24,1.69-3.04,2.92-.8,1.23-1.39,2.64-1.76,4.24-.37,1.6-.56,3.28-.56,5.04s.19,3.36.56,4.96c.37,1.6.96,3.01,1.76,4.24.8,1.23,1.81,2.2,3.04,2.92,1.23.72,2.67,1.08,4.32,1.08s3.16-.36,4.36-1.08c1.2-.72,2.2-1.69,3-2.92.8-1.23,1.39-2.64,1.76-4.24.37-1.6.56-3.25.56-4.96s-.19-3.44-.56-5.04Z"/>
    <path class="cls-2" d="m1003.39,396.19c-2.19,1.44-5.23,2.16-9.12,2.16-1.17,0-2.33-.04-3.48-.12-1.15-.08-2.31-.17-3.48-.28v-9.36c1.07.11,2.16.21,3.28.32,1.12.11,2.24.13,3.36.08,1.49-.16,2.6-.75,3.32-1.76.72-1.01,1.08-2.13,1.08-3.36,0-.91-.16-1.76-.48-2.56l-14.48-38.8h12.08l9.36,28.32h.16l9.04-28.32h11.76l-17.28,46.48c-1.23,3.36-2.93,5.76-5.12,7.2Z"/>
    <path class="cls-2" d="m1113.71,341.99c-.75-1.2-1.68-2.25-2.8-3.16-1.12-.91-2.39-1.61-3.8-2.12-1.41-.51-2.89-.76-4.44-.76-2.83,0-5.23.55-7.2,1.64-1.97,1.09-3.57,2.56-4.8,4.4-1.23,1.84-2.12,3.93-2.68,6.28-.56,2.35-.84,4.77-.84,7.28s.28,4.73.84,7c.56,2.27,1.45,4.31,2.68,6.12,1.23,1.81,2.83,3.27,4.8,4.36,1.97,1.09,4.37,1.64,7.2,1.64,3.84,0,6.84-1.17,9-3.52,2.16-2.35,3.48-5.44,3.96-9.28h12.16c-.32,3.57-1.15,6.8-2.48,9.68-1.33,2.88-3.09,5.33-5.28,7.36-2.19,2.03-4.75,3.57-7.68,4.64-2.93,1.07-6.16,1.6-9.68,1.6-4.37,0-8.31-.76-11.8-2.28-3.49-1.52-6.44-3.61-8.84-6.28-2.4-2.67-4.24-5.8-5.52-9.4-1.28-3.6-1.92-7.48-1.92-11.64s.64-8.23,1.92-11.88c1.28-3.65,3.12-6.84,5.52-9.56,2.4-2.72,5.35-4.85,8.84-6.4,3.49-1.55,7.43-2.32,11.8-2.32,3.15,0,6.12.45,8.92,1.36,2.8.91,5.31,2.23,7.52,3.96,2.21,1.73,4.04,3.88,5.48,6.44,1.44,2.56,2.35,5.49,2.72,8.8h-12.16c-.21-1.44-.69-2.76-1.44-3.96Z"/>
    <path class="cls-2" d="m1158.51,326.75v21.52h.24c1.44-2.4,3.28-4.15,5.52-5.24,2.24-1.09,4.43-1.64,6.56-1.64,3.04,0,5.53.41,7.48,1.24,1.95.83,3.48,1.97,4.6,3.44,1.12,1.47,1.91,3.25,2.36,5.36.45,2.11.68,4.44.68,7v25.44h-11.36v-23.36c0-3.41-.53-5.96-1.6-7.64-1.07-1.68-2.96-2.52-5.68-2.52-3.09,0-5.33.92-6.72,2.76-1.39,1.84-2.08,4.87-2.08,9.08v21.68h-11.36v-57.12h11.36Z"/>
    <path class="cls-2" d="m1206.11,355.23c.16-2.67.83-4.88,2-6.64,1.17-1.76,2.67-3.17,4.48-4.24,1.81-1.07,3.85-1.83,6.12-2.28,2.27-.45,4.55-.68,6.84-.68,2.08,0,4.19.15,6.32.44,2.13.29,4.08.87,5.84,1.72,1.76.85,3.2,2.04,4.32,3.56,1.12,1.52,1.68,3.53,1.68,6.04v21.52c0,1.87.11,3.65.32,5.36.21,1.71.59,2.99,1.12,3.84h-11.52c-.21-.64-.39-1.29-.52-1.96-.13-.67-.23-1.35-.28-2.04-1.81,1.87-3.95,3.17-6.4,3.92-2.45.75-4.96,1.12-7.52,1.12-1.97,0-3.81-.24-5.52-.72-1.71-.48-3.2-1.23-4.48-2.24-1.28-1.01-2.28-2.29-3-3.84-.72-1.55-1.08-3.39-1.08-5.52,0-2.35.41-4.28,1.24-5.8.83-1.52,1.89-2.73,3.2-3.64,1.31-.91,2.8-1.59,4.48-2.04,1.68-.45,3.37-.81,5.08-1.08,1.71-.27,3.39-.48,5.04-.64,1.65-.16,3.12-.4,4.4-.72,1.28-.32,2.29-.79,3.04-1.4.75-.61,1.09-1.51,1.04-2.68,0-1.23-.2-2.2-.6-2.92-.4-.72-.93-1.28-1.6-1.68-.67-.4-1.44-.67-2.32-.8-.88-.13-1.83-.2-2.84-.2-2.24,0-4,.48-5.28,1.44-1.28.96-2.03,2.56-2.24,4.8h-11.36Zm26.24,8.4c-.48.43-1.08.76-1.8,1-.72.24-1.49.44-2.32.6-.83.16-1.69.29-2.6.4-.91.11-1.81.24-2.72.4-.85.16-1.69.37-2.52.64-.83.27-1.55.63-2.16,1.08-.61.45-1.11,1.03-1.48,1.72-.37.69-.56,1.57-.56,2.64s.19,1.87.56,2.56c.37.69.88,1.24,1.52,1.64.64.4,1.39.68,2.24.84.85.16,1.73.24,2.64.24,2.24,0,3.97-.37,5.2-1.12,1.23-.75,2.13-1.64,2.72-2.68.59-1.04.95-2.09,1.08-3.16.13-1.07.2-1.92.2-2.56v-4.24Z"/>
    <path class="cls-2" d="m1287.23,342.51v7.6h-8.32v20.48c0,1.92.32,3.2.96,3.84.64.64,1.92.96,3.84.96.64,0,1.25-.03,1.84-.08.59-.05,1.15-.13,1.68-.24v8.8c-.96.16-2.03.27-3.2.32-1.17.05-2.32.08-3.44.08-1.76,0-3.43-.12-5-.36-1.57-.24-2.96-.71-4.16-1.4-1.2-.69-2.15-1.68-2.84-2.96-.69-1.28-1.04-2.96-1.04-5.04v-24.4h-6.88v-7.6h6.88v-12.4h11.36v12.4h8.32Z"/>
    <path class="cls-2" d="m1339.71,383.43c-2.72,1.15-5.47,1.72-8.24,1.72-4.37,0-8.31-.76-11.8-2.28-3.49-1.52-6.44-3.61-8.84-6.28s-4.24-5.8-5.52-9.4-1.92-7.48-1.92-11.64.64-8.23,1.92-11.88c1.28-3.65,3.12-6.84,5.52-9.56s5.35-4.85,8.84-6.4c3.49-1.55,7.43-2.32,11.8-2.32,2.93,0,5.77.44,8.52,1.32,2.75.88,5.23,2.17,7.44,3.88,2.21,1.71,4.04,3.81,5.48,6.32,1.44,2.51,2.32,5.39,2.64,8.64h-12c-.75-3.2-2.19-5.6-4.32-7.2-2.13-1.6-4.72-2.4-7.76-2.4-2.83,0-5.23.55-7.2,1.64-1.97,1.09-3.57,2.56-4.8,4.4-1.23,1.84-2.12,3.93-2.68,6.28-.56,2.35-.84,4.77-.84,7.28s.28,4.73.84,7,1.45,4.31,2.68,6.12c1.23,1.81,2.83,3.27,4.8,4.36,1.97,1.09,4.37,1.64,7.2,1.64,4.16,0,7.37-1.05,9.64-3.16,2.27-2.11,3.59-5.16,3.96-9.16h-12.64v-9.36h24v30.88h-8l-1.28-6.48c-2.24,2.88-4.72,4.89-7.44,6.04Z"/>
    <path class="cls-2" d="m1404.35,326.75c3.57,0,6.61.52,9.12,1.56,2.51,1.04,4.55,2.41,6.12,4.12,1.57,1.71,2.72,3.65,3.44,5.84.72,2.19,1.08,4.45,1.08,6.8s-.36,4.55-1.08,6.76c-.72,2.21-1.87,4.17-3.44,5.88-1.57,1.71-3.61,3.08-6.12,4.12-2.51,1.04-5.55,1.56-9.12,1.56h-13.2v20.48h-12.56v-57.12h25.76Zm-3.44,26.88c1.44,0,2.83-.11,4.16-.32,1.33-.21,2.51-.63,3.52-1.24,1.01-.61,1.83-1.48,2.44-2.6.61-1.12.92-2.59.92-4.4s-.31-3.28-.92-4.4c-.61-1.12-1.43-1.99-2.44-2.6-1.01-.61-2.19-1.03-3.52-1.24-1.33-.21-2.72-.32-4.16-.32h-9.76v17.12h9.76Z"/>
    <path class="cls-2" d="m1439.47,337.31v-10.56h46.8v10.56h-17.12v46.56h-12.56v-46.56h-17.12Z"/>
  </g>
</svg>